<svg xmlns="http://www.w3.org/2000/svg" xmlns:xlink="http://www.w3.org/1999/xlink" version="1.1" x="0px" y="0px" viewBox="0 0 10 12.5" style="enable-background:new 0 0 10 10;" xml:space="preserve"><g><g><g><path d="M1.7,1.8c0,2.4,0,4.8,0,7.2c0,0.5,0.8,0.5,0.8,0c0-0.1,0-0.2,0-0.2c0-0.5-0.8-0.5-0.8,0     c0,0.1,0,0.2,0,0.2c0,0.5,0.8,0.5,0.8,0c0-2.4,0-4.8,0-7.2C2.5,1.3,1.7,1.3,1.7,1.8L1.7,1.8z"/></g></g><g><g><path d="M2.4,9.3C3.2,8.4,4,7.4,4.8,6.5C5.1,6.1,4.6,5.6,4.3,6C3.5,6.9,2.6,7.8,1.8,8.8C1.5,9.1,2.1,9.7,2.4,9.3     L2.4,9.3z"/></g></g><g><g><path d="M4.3,6.5c0.8,1,1.7,1.9,2.5,2.9c0.3,0.4,0.8-0.2,0.5-0.5c-0.8-1-1.7-2-2.5-2.9C4.5,5.6,4,6.1,4.3,6.5     L4.3,6.5z"/></g></g><g><g><path d="M7.5,9.2c0-2.5,0-4.9,0-7.4c0-0.5-0.8-0.5-0.8,0c0,2.5,0,4.9,0,7.4C6.7,9.6,7.5,9.7,7.5,9.2L7.5,9.2z"/></g></g><g><g><path d="M2.1,2.1c1.6,0,3.3,0,4.9,0c0.5,0,0.5-0.8,0-0.8c-1.6,0-3.3,0-4.9,0C1.6,1.4,1.6,2.1,2.1,2.1L2.1,2.1z"/></g></g></g><text x="0" y="25" fill="#000000" font-size="5px" font-weight="bold" font-family="'Helvetica Neue', Helvetica, Arial-Unicode, Arial, Sans-serif">Created by César Santos</text><text x="0" y="30" fill="#000000" font-size="5px" font-weight="bold" font-family="'Helvetica Neue', Helvetica, Arial-Unicode, Arial, Sans-serif">from the Noun Project</text></svg>