<svg xmlns="http://www.w3.org/2000/svg" xmlns:xlink="http://www.w3.org/1999/xlink" version="1.1" x="0px" y="0px" viewBox="0 0 100 125" style="enable-background:new 0 0 100 100;" xml:space="preserve"><g><path d="M27.2,84.6c7,4.9,15.2,7.4,23.8,7.4c23.2,0,42-18.8,42-42S74.2,8,51,8S9,26.8,9,50c0,6,1.2,11.8,3.7,17.2L4.8,89.4   L27.2,84.6z M51,16c18.7,0,34,15.3,34,34S69.7,84,51,84c-7.5,0-14.6-2.4-20.5-6.9L29,76l-11.9,2.6l4.2-11.9l-0.8-1.5   C18.2,60.4,17,55.3,17,50C17,31.3,32.3,16,51,16z"/></g></svg>
