<svg xmlns="http://www.w3.org/2000/svg" data-name="Layer 1" viewBox="0 0 100 125" x="0px" y="0px"><title>heart 2k18</title><path d="M98.76,26.35c-3.6-10.9-11.1-17.7-22.4-19.6a29.22,29.22,0,0,0-5.1-.4c-8.1,0-15.1,3.5-20.9,10-.1.1-.2.3-.3.4a46.43,46.43,0,0,0-3.9-3.8,27.24,27.24,0,0,0-17.8-6.6c-12.4,0-24.5,8.1-27.5,21.5a33.78,33.78,0,0,0,4.4,26.1,84.88,84.88,0,0,0,16.1,18.8,171.11,171.11,0,0,0,28,20.6,1.14,1.14,0,0,0,.8.3,1.45,1.45,0,0,0,.7-.2c12.4-7.6,24-16.2,34.2-26.7a60.37,60.37,0,0,0,12.1-17.1,29.55,29.55,0,0,0,2.7-9.2,1.42,1.42,0,0,1,.2-.6v-8C99.66,30,99.26,28.15,98.76,26.35ZM93,38.85a2.2,2.2,0,0,0-.1.8,22.33,22.33,0,0,1-2.1,7.1,53.22,53.22,0,0,1-10.9,15.1c-8.1,8.4-17.6,16-29.8,23.7a174.74,174.74,0,0,1-24-18,76.64,76.64,0,0,1-14.8-17.3,27,27,0,0,1-3.5-20.9c2.5-11,12.5-16.1,20.7-16.1a20.24,20.24,0,0,1,13.3,4.9c.7.6,1.4,1.3,2.2,2.1a17.88,17.88,0,0,1,1.3,1.4l6,6,4.7-7c4.5-5,9.5-7.4,15.4-7.4a25.61,25.61,0,0,1,3.9.3c8.6,1.4,14.1,6.2,17,14.9a12.66,12.66,0,0,1,.6,2.8c.1.4.1.8.2,1.2v6.4Z"/></svg>
