<?xml version="1.0" encoding="UTF-8"?>
<svg width="87px" height="55px" viewBox="0 0 87 55" version="1.1" xmlns="http://www.w3.org/2000/svg" xmlns:xlink="http://www.w3.org/1999/xlink">
    <!-- Generator: Sketch 49.1 (51147) - http://www.bohemiancoding.com/sketch -->
    <title>Logo iG!</title>
    <desc>Created with Sketch.</desc>
    <defs></defs>
    <g id="Ontwerpen" stroke="none" stroke-width="1" fill="none" fill-rule="evenodd">
        <g id="1.-Homepage" transform="translate(-186.000000, -33.000000)" fill="#E31837">
            <g id="Header">
                <path d="M186,86.9305556 L186.377277,48.4305556 L195.582827,48.4305556 L195.205551,86.9305556 L186,86.9305556 Z M186.377277,43.0833333 L186.452732,34.0694444 L195.658283,34.0694444 L195.582827,43.0833333 L186.377277,43.0833333 Z M240.780572,78.6805556 L241.157849,60.1180556 L251.268864,60.1180556 L250.891587,84.1805556 C245.156982,86.4722222 239.120555,88 233.38595,88 C217.54033,88 205.392021,76.5416667 205.392021,60.5 C205.392021,45.0694444 217.842151,33 233.38595,33 C240.101474,33 245.911535,34.4513889 250.287944,36.8958333 L246.741544,44.2291667 C242.817866,42.3194444 238.667823,40.9444444 233.38595,40.9444444 C224.633131,40.9444444 215.503036,48.2013889 215.503036,60.5 C215.503036,72.0347222 222.595837,80.0555556 233.38595,80.0555556 C236.177797,80.0555556 238.743278,79.5208333 240.780572,78.6805556 Z M263.568083,86.9305556 L263.568083,77.4583333 L272.773634,77.4583333 L272.773634,86.9305556 L263.568083,86.9305556 Z M263.568083,72.0347222 L263.794449,34.0694444 L273,34.0694444 L272.773634,72.0347222 L263.568083,72.0347222 Z" id="Logo-iG!"></path>
            </g>
        </g>
    </g>
</svg>