<svg xmlns="http://www.w3.org/2000/svg" xmlns:xlink="http://www.w3.org/1999/xlink" version="1.1" x="0px" y="0px" viewBox="0 0 100 125" enable-background="new 0 0 100 100" xml:space="preserve"><path fill-rule="evenodd" clip-rule="evenodd" d="M51.239,6.144c18.649,0,34.578,11.641,40.92,28.052  c0.798,2.064,0.549,4.201-0.703,6.026s-3.154,2.828-5.367,2.828h-0.134c-2.766,0-5.123-1.634-6.094-4.226  c-4.037-10.779-13.418-18.589-26.29-19.432c-0.254-0.005-0.505-0.008-0.76-0.008c-18.692,0-33.844,15.152-33.844,33.844  c0,18.691,15.152,33.844,33.844,33.844c6.447,0,17.249-3.389,23.797-9.779c0.632-0.616,1.391-0.926,2.273-0.926h0.124  c1.362,0,2.525,0.791,3.026,2.059s0.194,2.64-0.801,3.571c-7.842,7.355-18.391,11.86-29.992,11.86  C27.018,93.856,7.382,74.222,7.382,50C7.382,25.779,27.018,6.144,51.239,6.144z"/></svg>
